<svg width="412" height="113" viewBox="0 0 412 113" fill="none" xmlns="http://www.w3.org/2000/svg">
<path d="M10.1741 49.8485C8.03006 46.7397 4.26047 46.2305 2.64368 46.3645C4.89493 30.8994 12.7653 21.1147 21.6982 14.9255C21.6982 14.9255 24.5122 15.3511 28.3983 15.1421C38.368 14.6061 36.751 17.8668 34.6963 19.5642C31.3016 23.0482 26.4419 29.4803 34.1603 27.3363C43.8084 24.6562 43.2724 26.5323 48.3645 30.0163C53.4565 33.5003 50.3745 35.5104 46.8905 35.6444C43.4064 35.7784 37.1084 38.9944 34.1603 43.5504C31.2123 48.1065 28.3983 46.3645 22.9042 47.0345C17.4102 47.7045 25.4502 54.1366 28.3983 58.9606C31.3463 63.7847 31.0783 63.5167 24.5122 66.3307C17.9462 69.1447 12.8541 53.7345 10.1741 49.8485Z" fill="#32463B"/>
<path d="M54.1266 4.28802C54.1266 4.28802 36.4613 4.69673 21.6982 14.9255M54.1266 108.139C54.1266 108.139 31.9184 107.111 16.4935 92.461M2.64368 46.3645C2.22437 49.245 2 52.3225 2 55.6106C2.00002 73.015 8.28665 84.6662 16.4935 92.461M2.64368 46.3645C4.26047 46.2305 8.03006 46.7397 10.1741 49.8485C12.8541 53.7345 17.9462 69.1447 24.5122 66.3307C31.0783 63.5167 31.3463 63.7847 28.3983 58.9606C25.4502 54.1366 17.4102 47.7045 22.9042 47.0345C28.3983 46.3645 31.2123 48.1065 34.1603 43.5504C37.1084 38.9944 43.4064 35.7784 46.8905 35.6444C50.3745 35.5104 53.4565 33.5003 48.3645 30.0163C43.2724 26.5323 43.8084 24.6562 34.1603 27.3363C26.4419 29.4803 31.3016 23.0482 34.6963 19.5642C36.751 17.8668 38.368 14.6061 28.3983 15.1421C24.5122 15.3511 21.6982 14.9255 21.6982 14.9255M2.64368 46.3645C4.89493 30.8994 12.7653 21.1147 21.6982 14.9255M16.4935 92.461C17.0224 90.7189 19.045 86.5917 22.9042 84.0189C27.7283 80.8028 31.2123 73.8348 32.2843 71.2887C33.1419 69.2519 34.9643 70.4401 35.7684 71.2887C37.287 73.9688 41.1284 79.5164 44.3444 80.2668C47.5605 81.0172 52.2059 82.1875 54.1266 82.6789" stroke="black" stroke-width="4"/>
<rect x="38.9844" y="86.8329" width="14.2041" height="4.02004" rx="2.01002" fill="black"/>
<rect x="40.5924" y="20.9042" width="11.2561" height="4.02004" rx="2.01002" transform="rotate(-90 40.5924 20.9042)" fill="black"/>
<rect x="46.2205" y="24.1202" width="13.6681" height="4.02004" rx="2.01002" transform="rotate(-90 46.2205 24.1202)" fill="black"/>
<rect x="52.9206" y="29.4803" width="19.0282" height="4.02004" rx="2.01002" transform="rotate(-90 52.9206 29.4803)" fill="black"/>
<rect x="70.6087" y="44.7565" width="28.4083" height="4.02004" rx="2.01002" transform="rotate(-90 70.6087 44.7565)" fill="black"/>
<rect x="73.8247" y="88.7089" width="17.9562" height="4.02004" rx="2.01002" transform="rotate(-90 73.8247 88.7089)" fill="#32463B"/>
<rect x="45.4164" y="40.7365" width="29.2123" height="4.02004" rx="2.01002" fill="black"/>
<rect x="44.3445" y="92.461" width="14.2041" height="4.02004" rx="2.01002" fill="black"/>
<rect x="38.1804" y="98.089" width="14.2041" height="4.02004" rx="2.01002" fill="black"/>
<circle cx="55.0646" cy="108.273" r="4.28805" fill="black"/>
<circle cx="54.3945" cy="82.4109" r="2.54603" fill="black"/>
<circle cx="55.0646" cy="4.28805" r="4.28805" fill="black"/>
<path fill-rule="evenodd" clip-rule="evenodd" d="M72.7528 19.0282C75.861 19.0282 78.3808 16.5084 78.3808 13.4002C78.3808 10.2919 75.861 7.77209 72.7528 7.77209C69.6445 7.77209 67.1247 10.2919 67.1247 13.4002C67.1247 16.5084 69.6445 19.0282 72.7528 19.0282ZM72.6187 16.0802C74.1729 16.0802 75.4328 14.8203 75.4328 13.2662C75.4328 11.712 74.1729 10.4521 72.6187 10.4521C71.0646 10.4521 69.8047 11.712 69.8047 13.2662C69.8047 14.8203 71.0646 16.0802 72.6187 16.0802Z" fill="black"/>
<rect x="95.265" y="55.2086" width="15.2762" height="4.02004" rx="2.01002" transform="rotate(-90 95.265 55.2086)" fill="#32463B"/>
<rect x="38.1804" y="51.1885" width="60.8366" height="4.02004" rx="2.01002" fill="#32463B"/>
<rect x="36.5724" y="60.5686" width="60.8366" height="4.02004" rx="2.01002" fill="black"/>
<rect x="44.6125" y="70.2167" width="33.2323" height="4.02004" rx="2.01002" fill="#32463B"/>
<rect x="74" y="85" width="13" height="4" rx="2" fill="#32463B"/>
<path fill-rule="evenodd" clip-rule="evenodd" d="M97.409 42.6124C100.517 42.6124 103.037 40.0927 103.037 36.9844C103.037 33.8761 100.517 31.3563 97.409 31.3563C94.3007 31.3563 91.781 33.8761 91.781 36.9844C91.781 40.0927 94.3007 42.6124 97.409 42.6124ZM97.275 39.6644C98.8292 39.6644 100.089 38.4046 100.089 36.8504C100.089 35.2963 98.8292 34.0364 97.275 34.0364C95.7209 34.0364 94.461 35.2963 94.461 36.8504C94.461 38.4046 95.7209 39.6644 97.275 39.6644Z" fill="#32463B"/>
<path fill-rule="evenodd" clip-rule="evenodd" d="M100.357 68.3407C103.465 68.3407 105.985 65.8209 105.985 62.7127C105.985 59.6044 103.465 57.0846 100.357 57.0846C97.2487 57.0846 94.729 59.6044 94.729 62.7127C94.729 65.8209 97.2487 68.3407 100.357 68.3407ZM100.223 65.3926C101.777 65.3926 103.037 64.1328 103.037 62.5786C103.037 61.0245 101.777 59.7646 100.223 59.7646C98.6689 59.7646 97.409 61.0245 97.409 62.5786C97.409 64.1328 98.6689 65.3926 100.223 65.3926Z" fill="black"/>
<path fill-rule="evenodd" clip-rule="evenodd" d="M90.6281 92.2561C93.7364 92.2561 96.2561 89.7364 96.2561 86.6281C96.2561 83.5198 93.7364 81 90.6281 81C87.5198 81 85 83.5198 85 86.6281C85 89.7364 87.5198 92.2561 90.6281 92.2561ZM90.4941 89.3081C92.0482 89.3081 93.3081 88.0482 93.3081 86.494C93.3081 84.9399 92.0482 83.68 90.4941 83.68C88.9399 83.68 87.68 84.9399 87.68 86.494C87.68 88.0482 88.9399 89.3081 90.4941 89.3081Z" fill="#32463B"/>
<path d="M112.435 56V15.18H125.565C130.05 15.18 133.473 16.3175 135.835 18.5925C138.218 20.8458 139.41 23.9117 139.41 27.79C139.41 31.625 138.218 34.6692 135.835 36.9225C133.473 39.1542 130.05 40.27 125.565 40.27H117.57V56H112.435ZM117.57 35.85H125.565C128.403 35.85 130.548 35.1242 132 33.6725C133.473 32.2208 134.21 30.26 134.21 27.79C134.21 25.2767 133.473 23.2725 132 21.7775C130.548 20.2825 128.403 19.535 125.565 19.535H117.57V35.85ZM153.626 15.18V51.58H171.826V56H148.556V15.18H153.626ZM193.131 56.78C189.535 56.78 186.436 55.8808 183.836 54.0825C181.236 52.2625 179.232 49.7492 177.824 46.5425C176.416 43.3142 175.711 39.5767 175.711 35.33C175.711 30.8017 176.47 26.9883 177.986 23.89C179.525 20.7917 181.605 18.4517 184.226 16.87C186.87 15.2667 189.838 14.465 193.131 14.465C197.486 14.465 200.986 15.5592 203.629 17.7475C206.294 19.9142 208.125 22.7417 209.121 26.23L203.661 27.335C202.816 24.8 201.462 22.785 199.599 21.29C197.757 19.7733 195.601 19.015 193.131 19.015C190.986 19.015 189.004 19.6325 187.184 20.8675C185.386 22.0808 183.934 23.9008 182.829 26.3275C181.724 28.7542 181.171 31.755 181.171 35.33C181.171 38.58 181.605 41.4725 182.471 44.0075C183.36 46.5425 184.681 48.5358 186.436 49.9875C188.213 51.4392 190.445 52.165 193.131 52.165C196.36 52.165 198.916 51.2983 200.801 49.565C202.708 47.8317 203.661 45.5567 203.661 42.74H209.186C209.186 45.665 208.515 48.1783 207.171 50.28C205.828 52.36 203.943 53.9633 201.516 55.09C199.111 56.2167 196.316 56.78 193.131 56.78Z" fill="black"/>
<path d="M112.5 92V66.88H127.98V69.56H115.62V78H127.26V80.68H115.62V89.28H127.98V92H112.5ZM138.121 66.88V89.28H149.321V92H135.001V66.88H138.121ZM153.672 92V66.88H169.152V69.56H156.792V78H168.432V80.68H156.792V89.28H169.152V92H153.672ZM184.893 92.48C182.679 92.48 180.773 91.9267 179.173 90.82C177.573 89.7 176.339 88.1533 175.473 86.18C174.606 84.1933 174.173 81.8933 174.173 79.28C174.173 76.4933 174.639 74.1467 175.573 72.24C176.519 70.3333 177.799 68.8933 179.413 67.92C181.039 66.9333 182.866 66.44 184.893 66.44C187.573 66.44 189.726 67.1133 191.353 68.46C192.993 69.7933 194.119 71.5333 194.733 73.68L191.373 74.36C190.853 72.8 190.019 71.56 188.873 70.64C187.739 69.7067 186.413 69.24 184.893 69.24C183.573 69.24 182.353 69.62 181.233 70.38C180.126 71.1267 179.233 72.2467 178.553 73.74C177.873 75.2333 177.533 77.08 177.533 79.28C177.533 81.28 177.799 83.06 178.333 84.62C178.879 86.18 179.693 87.4067 180.773 88.3C181.866 89.1933 183.239 89.64 184.893 89.64C186.879 89.64 188.453 89.1067 189.613 88.04C190.786 86.9733 191.373 85.5733 191.373 83.84H194.773C194.773 85.64 194.359 87.1867 193.533 88.48C192.706 89.76 191.546 90.7467 190.053 91.44C188.573 92.1333 186.853 92.48 184.893 92.48ZM196.904 69.56V66.88H216.464V69.56H207.524L208.224 68.84V92H205.104V68.84L205.804 69.56H196.904ZM220.743 92V66.88H229.503C232.37 66.88 234.536 67.5667 236.003 68.94C237.483 70.3 238.223 72.0933 238.223 74.32C238.223 76.52 237.483 78.3067 236.003 79.68C234.536 81.04 232.37 81.72 229.503 81.72H223.863V92H220.743ZM234.823 92L227.623 80.6H231.023L238.863 92H234.823ZM223.863 79.52H229.263C231.143 79.52 232.57 79.06 233.543 78.14C234.53 77.2067 235.023 76 235.023 74.52C235.023 73 234.55 71.7933 233.603 70.9C232.67 70.0067 231.303 69.56 229.503 69.56H223.863V79.52ZM245.235 92V66.88H248.355V92H245.235ZM265.166 92.48C262.953 92.48 261.046 91.9267 259.446 90.82C257.846 89.7 256.613 88.1533 255.746 86.18C254.88 84.1933 254.446 81.8933 254.446 79.28C254.446 76.4933 254.913 74.1467 255.846 72.24C256.793 70.3333 258.073 68.8933 259.686 67.92C261.313 66.9333 263.14 66.44 265.166 66.44C267.846 66.44 270 67.1133 271.626 68.46C273.266 69.7933 274.393 71.5333 275.006 73.68L271.646 74.36C271.126 72.8 270.293 71.56 269.146 70.64C268.013 69.7067 266.686 69.24 265.166 69.24C263.846 69.24 262.626 69.62 261.506 70.38C260.4 71.1267 259.506 72.2467 258.826 73.74C258.146 75.2333 257.806 77.08 257.806 79.28C257.806 81.28 258.073 83.06 258.606 84.62C259.153 86.18 259.966 87.4067 261.046 88.3C262.14 89.1933 263.513 89.64 265.166 89.64C267.153 89.64 268.726 89.1067 269.886 88.04C271.06 86.9733 271.646 85.5733 271.646 83.84H275.046C275.046 85.64 274.633 87.1867 273.806 88.48C272.98 89.76 271.82 90.7467 270.326 91.44C268.846 92.1333 267.126 92.48 265.166 92.48ZM290.39 92V66.88H298.47C301.23 66.88 303.336 67.58 304.79 68.98C306.256 70.3667 306.99 72.2533 306.99 74.64C306.99 77 306.256 78.8733 304.79 80.26C303.336 81.6333 301.23 82.32 298.47 82.32H293.55V92H290.39ZM293.55 79.6H298.47C300.216 79.6 301.536 79.1533 302.43 78.26C303.336 77.3667 303.79 76.16 303.79 74.64C303.79 73.0933 303.336 71.86 302.43 70.94C301.536 70.02 300.216 69.56 298.47 69.56H293.55V79.6ZM308.056 92L316.696 66.88H320.496L328.936 92H325.656L323.536 85.56H313.536L311.336 92H308.056ZM314.336 83.12H322.736L318.536 70.68L314.336 83.12ZM334.024 92V66.88H342.784C345.651 66.88 347.818 67.5667 349.284 68.94C350.764 70.3 351.504 72.0933 351.504 74.32C351.504 76.52 350.764 78.3067 349.284 79.68C347.818 81.04 345.651 81.72 342.784 81.72H337.144V92H334.024ZM348.104 92L340.904 80.6H344.304L352.144 92H348.104ZM337.144 79.52H342.544C344.424 79.52 345.851 79.06 346.824 78.14C347.811 77.2067 348.304 76 348.304 74.52C348.304 73 347.831 71.7933 346.884 70.9C345.951 70.0067 344.584 69.56 342.784 69.56H337.144V79.52ZM354.717 69.56V66.88H374.277V69.56H365.337L366.037 68.84V92H362.917V68.84L363.617 69.56H354.717ZM386.596 92.48C384.916 92.48 383.376 92.18 381.976 91.58C380.576 90.9667 379.449 90.0667 378.596 88.88C377.742 87.6933 377.302 86.2267 377.276 84.48H380.316C380.316 85.6533 380.602 86.62 381.176 87.38C381.749 88.1267 382.509 88.6867 383.456 89.06C384.402 89.42 385.436 89.6 386.556 89.6C387.769 89.6 388.822 89.4067 389.716 89.02C390.609 88.6333 391.296 88.1267 391.776 87.5C392.269 86.86 392.516 86.16 392.516 85.4C392.516 84.3333 392.189 83.4733 391.536 82.82C390.882 82.1533 389.916 81.6133 388.636 81.2L384.196 79.64C382.116 78.8933 380.542 78.04 379.476 77.08C378.409 76.12 377.876 74.7733 377.876 73.04C377.876 71.0933 378.622 69.5067 380.116 68.28C381.622 67.0533 383.756 66.44 386.516 66.44C389.076 66.44 391.076 67.0333 392.516 68.22C393.956 69.3933 394.782 70.9733 394.996 72.96H391.916C391.716 71.8 391.169 70.9 390.276 70.26C389.396 69.6067 388.142 69.28 386.516 69.28C384.862 69.28 383.576 69.6467 382.656 70.38C381.736 71.1133 381.276 72.04 381.276 73.16C381.276 74.08 381.562 74.8133 382.136 75.36C382.722 75.8933 383.636 76.3733 384.876 76.8L390.076 78.6C391.876 79.2 393.296 80.04 394.336 81.12C395.389 82.2 395.916 83.6 395.916 85.32C395.916 86.6533 395.556 87.86 394.836 88.94C394.129 90.02 393.082 90.88 391.696 91.52C390.309 92.16 388.609 92.48 386.596 92.48Z" fill="black"/>
</svg>
